grf
version=1
nRows=21
nColumns=19
inDegrees=yes
endheader
time	ground_force_2_vx	ground_force_2_vy	ground_force_2_vz	ground_force_2_px	ground_force_2_py	ground_force_2_pz	ground_moment_2_mx	ground_moment_2_my	ground_moment_2_mz	ground_force_3_vx	ground_force_3_vy	ground_force_3_vz	ground_force_3_px	ground_force_3_py	ground_force_3_pz	ground_moment_3_mx	ground_moment_3_my	ground_moment_3_mz
0.955000	-78.542603	552.430567	-40.370748	-0.293699	0.000000	0.315904	-0.000000	-1.402496	-0.000000	0.000000	0.000000	0.000000	-0.702656	0.000000	0.137005	0.000000	0.000000	0.000000
0.956000	-78.016188	553.464549	-40.506451	-0.293661	0.000000	0.315908	-0.000000	-1.400890	-0.000000	0.000000	0.000000	0.000000	-0.702930	0.000000	0.136496	0.000000	0.000000	0.000000
0.957000	-77.479875	554.439600	-40.635573	-0.293621	0.000000	0.315912	-0.000000	-1.399056	-0.000000	0.000000	0.000000	0.000000	-0.703175	0.000000	0.136041	0.000000	0.000000	0.000000
0.958000	-76.934067	555.355948	-40.758186	-0.293578	0.000000	0.315917	-0.000000	-1.396996	-0.000000	0.000000	0.000000	0.000000	-0.703408	0.000000	0.135609	0.000000	0.000000	0.000000
0.959000	-76.379164	556.213853	-40.874364	-0.293532	0.000000	0.315923	-0.000000	-1.394715	-0.000000	0.000000	0.000000	0.000000	-0.703642	0.000000	0.135174	0.000000	0.000000	0.000000
0.960000	-75.815567	557.013602	-40.984185	-0.293483	0.000000	0.315930	-0.000000	-1.392215	-0.000000	0.000000	0.000000	0.000000	-0.703891	0.000000	0.134712	0.000000	0.000000	0.000000
0.961000	-75.243676	557.755515	-41.087730	-0.293430	0.000000	0.315939	-0.000000	-1.389500	-0.000000	0.000000	0.000000	0.000000	-0.704174	0.000000	0.134188	0.000000	0.000000	0.000000
0.962000	-74.663890	558.439938	-41.185081	-0.293374	0.000000	0.315949	-0.000000	-1.386574	-0.000000	0.000000	0.000000	0.000000	-0.704517	0.000000	0.133552	0.000000	0.000000	0.000000
0.963000	-74.076607	559.067247	-41.276325	-0.293314	0.000000	0.315961	-0.000000	-1.383440	-0.000000	0.000000	0.000000	0.000000	-0.704970	0.000000	0.132710	0.000000	0.000000	0.000000
0.964000	-73.482223	559.637846	-41.361548	-0.293249	0.000000	0.315975	-0.000000	-1.380101	-0.000000	0.000000	0.000000	0.000000	-0.705642	0.000000	0.131463	0.000000	0.000000	0.000000
0.965000	-72.881134	560.152168	-41.440842	-0.293178	0.000000	0.315992	-0.000000	-1.376562	-0.000000	0.000000	0.000000	0.000000	-0.706830	0.000000	0.129259	0.000000	0.000000	0.000000
0.966000	-72.273730	560.610674	-41.514299	-0.293102	0.000000	0.316012	-0.000000	-1.372825	-0.000000	0.000000	0.000000	0.000000	-0.709759	0.000000	0.123826	0.000000	0.000000	0.000000
0.967000	-71.660402	561.013852	-41.582012	-0.293019	0.000000	0.316034	-0.000000	-1.368894	-0.000000	0.000000	0.000000	0.000000	-0.733734	0.000000	0.079345	0.000000	0.000000	0.000000
0.968000	-71.041536	561.362217	-41.644077	-0.292932	0.000000	0.316056	-0.000000	-1.364774	-0.000000	0.000000	0.000000	0.000000	-0.692163	0.000000	0.156471	0.000000	0.000000	0.000000
0.969000	-70.417515	561.656311	-41.700592	-0.292839	0.000000	0.316079	-0.000000	-1.360466	-0.000000	0.000000	0.000000	0.000000	-0.698763	0.000000	0.144226	0.000000	0.000000	0.000000
0.970000	-69.788721	561.896703	-41.751654	-0.292740	0.000000	0.316101	-0.000000	-1.355975	-0.000000	0.000000	0.000000	0.000000	-0.700585	0.000000	0.140845	0.000000	0.000000	0.000000
0.971000	-69.155529	562.083988	-41.797365	-0.292637	0.000000	0.316122	-0.000000	-1.351304	-0.000000	0.000000	0.000000	0.000000	-0.701475	0.000000	0.139194	0.000000	0.000000	0.000000
0.972000	-68.518312	562.218783	-41.837825	-0.292526	0.000000	0.316142	-0.000000	-1.346457	-0.000000	0.000000	0.000000	0.000000	-0.702027	0.000000	0.138170	0.000000	0.000000	0.000000
0.973000	-67.877437	562.301735	-41.873137	-0.292411	0.000000	0.316161	-0.000000	-1.341436	-0.000000	0.000000	0.000000	0.000000	-0.702421	0.000000	0.137439	0.000000	0.000000	0.000000
0.974000	-67.233269	562.333511	-41.903401	-0.292290	0.000000	0.316179	-0.000000	-1.336246	-0.000000	0.000000	0.000000	0.000000	-0.702732	0.000000	0.136863	0.000000	0.000000	0.000000
0.975000	-66.586165	562.314805	-41.928723	-0.292163	0.000000	0.316196	-0.000000	-1.330888	-0.000000	0.000000	0.000000	0.000000	-0.702997	0.000000	0.136372	0.000000	0.000000	0.000000
